<?xml version="1.0" standalone="no"?>
<!DOCTYPE svg PUBLIC "-//W3C//DTD SVG 20010904//EN"
 "http://www.w3.org/TR/2001/REC-SVG-20010904/DTD/svg10.dtd">
<svg version="1.0" xmlns="http://www.w3.org/2000/svg"
 width="595.000000pt" height="589.000000pt" viewBox="0 0 595.000000 589.000000"
 preserveAspectRatio="xMidYMid meet">

<g transform="translate(0.000000,589.000000) scale(0.100000,-0.100000)"
fill="#2E2A68" stroke="none">
<path d="M2725 5849 c-189 -14 -458 -68 -650 -129 -735 -235 -1334 -735 -1704
-1422 -354 -658 -424 -1488 -189 -2228 153 -482 451 -947 814 -1272 683 -610
1536 -863 2435 -723 391 61 767 198 1088 398 188 116 446 331 593 494 404 446
621 865 738 1428 41 199 53 363 47 652 -5 268 -18 369 -78 611 -173 699 -598
1296 -1216 1709 -539 361 -1215 534 -1878 482z m393 -200 c366 -20 633 -84
977 -234 412 -180 785 -480 1080 -870 233 -309 392 -663 487 -1085 22 -100 23
-122 23 -490 0 -362 -1 -392 -23 -498 -50 -248 -132 -484 -246 -712 -184 -367
-391 -621 -766 -940 -130 -111 -368 -255 -388 -235 -4 4 -8 171 -10 371 -3
314 -2 364 11 364 16 0 85 -45 177 -115 137 -104 200 -121 266 -70 73 55 91
122 55 200 -23 52 -39 65 -352 299 -145 108 -281 211 -302 227 -74 60 -71 47
-77 410 -3 180 -9 331 -13 336 -15 14 -325 9 -339 -5 -9 -9 -14 -63 -16 -175
-2 -89 -8 -166 -12 -171 -8 -8 -110 61 -430 294 -148 107 -229 160 -248 160
-32 0 -451 -314 -1482 -1109 -277 -214 -319 -264 -306 -360 10 -75 57 -121
137 -135 39 -7 39 -7 271 154 43 29 80 51 83 49 2 -3 8 -115 11 -250 8 -284
-1 -479 -21 -479 -22 0 -199 109 -300 185 -372 279 -647 606 -840 1000 -179
364 -261 699 -272 1112 -13 478 71 862 282 1285 131 263 324 519 566 753 330
319 760 556 1199 659 343 81 479 94 818 75z m-32 -3437 c55 -42 212 -162 348
-267 390 -298 446 -345 458 -373 11 -28 3 -1100 -8 -1154 -6 -25 -16 -31 -103
-57 -406 -125 -854 -160 -1211 -95 -227 41 -414 86 -471 115 l-36 18 -6 338
c-8 414 -8 754 1 810 6 37 16 49 92 111 150 122 818 632 829 632 3 0 51 -35
107 -78z"/>
<path d="M2240 5340 c-167 -30 -291 -112 -385 -253 l-50 -74 -91 -7 c-170 -12
-298 -68 -410 -180 -117 -117 -174 -246 -191 -430 l-8 -90 -48 -25 c-71 -36
-188 -149 -220 -213 -35 -69 -57 -172 -57 -272 l0 -78 -70 -65 c-110 -102
-209 -266 -245 -408 -22 -85 -25 -272 -6 -360 18 -84 57 -179 104 -253 l40
-63 -23 -76 c-19 -65 -22 -91 -18 -197 4 -93 10 -134 27 -178 67 -174 218
-304 441 -378 52 -18 116 -47 141 -66 49 -36 104 -45 127 -22 8 8 12 51 12
129 0 64 5 131 12 150 16 49 63 114 100 140 35 26 66 28 157 11 74 -13 146 -2
186 29 19 16 25 30 25 59 0 48 -20 64 -100 81 -81 17 -139 47 -191 100 -66 65
-70 92 -22 176 21 37 54 115 73 173 33 99 37 105 60 102 35 -5 52 -23 116
-119 87 -131 179 -195 309 -215 91 -14 230 1 309 34 187 78 383 280 461 475
57 142 57 149 62 788 2 325 0 734 -5 911 l-8 321 -38 79 c-77 164 -230 255
-449 268 -45 3 -102 1 -127 -4z m253 -228 c51 -23 111 -80 137 -132 24 -47 36
-115 22 -124 -6 -3 -39 3 -74 14 -178 57 -358 20 -358 -73 0 -18 4 -37 8 -43
4 -6 53 -14 109 -18 133 -8 200 -33 270 -99 l53 -50 0 -213 c0 -117 -3 -219
-6 -228 -5 -13 -12 -12 -57 6 -112 45 -241 61 -304 37 -40 -15 -73 -49 -73
-75 0 -44 30 -63 122 -80 147 -25 220 -66 281 -157 22 -33 38 -70 42 -100 9
-68 -4 -194 -21 -201 -7 -3 -43 4 -81 15 -37 11 -114 22 -170 26 -86 5 -106 3
-127 -11 -50 -32 -24 -131 37 -140 179 -26 221 -41 283 -103 45 -44 64 -89 64
-147 0 -199 -134 -394 -345 -503 -62 -32 -80 -37 -161 -41 -113 -5 -175 13
-228 65 -20 20 -36 42 -36 48 0 6 26 22 58 34 159 64 270 141 321 220 36 56
39 98 10 135 -47 59 -70 55 -173 -32 -113 -97 -239 -144 -386 -145 -110 0
-180 23 -314 103 -124 73 -165 86 -204 68 -40 -19 -57 -62 -44 -107 9 -28 23
-43 65 -68 71 -42 133 -105 148 -150 24 -73 -11 -176 -78 -232 -123 -102 -339
-73 -484 65 -102 98 -139 204 -139 404 0 98 35 214 90 300 38 59 132 148 165
156 16 4 53 -8 112 -34 113 -51 180 -65 279 -61 91 5 157 32 162 68 5 32 -17
90 -38 101 -11 6 -72 14 -137 20 -100 8 -127 14 -180 40 -70 35 -110 82 -119
142 -8 49 20 138 59 189 36 46 140 114 202 130 74 20 70 10 70 185 0 159 0
159 32 224 39 79 137 184 195 210 62 27 156 40 294 40 l122 0 6 35 c8 43 56
134 97 186 86 108 294 158 422 101z m-1608 -2724 c84 -29 100 -31 229 -32
l138 -1 29 -50 c16 -27 29 -58 29 -67 0 -10 -26 -46 -58 -82 -32 -35 -73 -91
-90 -125 -42 -78 -58 -87 -125 -67 -109 32 -211 121 -253 222 -32 75 -29 234
4 234 4 0 48 -14 97 -32z"/>
<path d="M2175 4646 c-17 -7 -49 -38 -72 -68 l-42 -56 -143 -3 c-135 -4 -146
-6 -202 -34 -187 -94 -278 -289 -205 -440 27 -57 43 -42 104 100 84 194 295
250 531 139 73 -34 78 -35 91 -18 8 12 13 50 13 110 0 70 5 104 20 138 29 69
29 95 0 116 -36 27 -61 31 -95 16z"/>
<path d="M1734 4040 c-27 -11 -54 -48 -54 -75 0 -12 25 -45 60 -79 73 -70 90
-107 90 -195 0 -75 -18 -122 -74 -195 -59 -78 -42 -136 41 -136 85 0 187 105
228 235 26 83 18 191 -20 268 -38 77 -119 152 -187 172 -58 17 -55 17 -84 5z"/>
<path d="M3436 5334 c-134 -32 -253 -129 -319 -260 l-35 -70 -12 -779 c-16
-1034 -12 -1093 91 -1303 37 -76 66 -120 116 -173 96 -101 183 -146 183 -95 0
9 11 41 25 72 14 31 25 61 25 66 0 5 -28 39 -63 76 -139 150 -182 272 -146
417 22 86 127 159 244 171 99 9 130 24 145 68 16 49 -4 81 -62 96 -51 14 -201
-1 -265 -26 -68 -27 -73 -21 -73 103 0 133 9 168 60 226 50 57 139 100 246
121 44 8 87 18 97 22 26 10 38 39 28 66 -32 84 -191 101 -345 37 -89 -36 -86
-43 -86 214 l0 224 46 43 c68 63 121 82 244 90 156 9 185 33 124 100 -21 23
-51 44 -72 50 -63 17 -196 12 -259 -10 -78 -27 -83 -26 -83 18 0 46 38 128 76
164 83 78 220 95 359 44 68 -25 90 -39 146 -95 57 -57 69 -76 91 -141 l25 -75
121 4 c75 2 142 -2 174 -9 132 -31 250 -125 309 -247 34 -67 34 -70 35 -213 1
-80 2 -150 3 -156 1 -6 39 -25 86 -43 149 -57 245 -169 245 -289 0 -47 -4 -57
-40 -95 -73 -80 -175 -117 -323 -117 -48 0 -62 -4 -82 -24 -29 -29 -43 -90
-24 -112 60 -72 233 -68 435 12 114 45 130 42 206 -37 101 -105 167 -274 168
-425 0 -69 -29 -193 -59 -252 -57 -111 -191 -210 -317 -233 -173 -32 -343 82
-344 230 0 89 58 165 166 216 57 27 66 45 54 101 -11 47 -28 63 -71 70 -28 5
-50 -2 -114 -37 -247 -132 -288 -145 -425 -136 -136 9 -241 54 -351 148 -88
76 -136 84 -164 28 -45 -86 30 -197 195 -292 110 -63 174 -79 341 -85 l156 -5
12 -51 c6 -28 38 -105 72 -172 60 -119 61 -121 46 -155 -26 -64 -77 -110 -164
-151 l-83 -39 0 -76 0 -76 110 6 c68 4 120 3 137 -4 37 -14 79 -55 109 -106
39 -66 45 -99 34 -191 -13 -98 -8 -117 29 -137 27 -13 32 -12 87 22 106 64
118 70 169 82 28 7 88 31 135 53 167 80 289 239 327 423 13 67 14 95 5 180 -6
55 -17 115 -24 132 -12 31 -9 39 35 125 90 176 117 307 98 467 -26 212 -97
349 -279 543 l-63 67 10 55 c27 147 -59 337 -200 441 -34 25 -67 45 -74 45 -7
0 -23 9 -37 20 -23 17 -26 28 -31 112 -19 325 -262 569 -592 593 l-93 7 -51
78 c-58 90 -125 148 -226 196 -127 61 -297 80 -429 48z m1745 -2926 c18 -34 6
-174 -20 -235 -28 -62 -115 -150 -188 -187 -55 -28 -122 -42 -139 -29 -5 4
-27 38 -47 74 -20 36 -58 90 -84 120 -26 30 -53 61 -61 71 -11 14 -10 23 13
70 40 79 50 88 88 77 87 -25 271 -4 355 41 48 25 69 25 83 -2z"/>
<path d="M3685 4645 c-30 -29 -31 -44 -5 -118 15 -41 20 -82 20 -151 0 -128 3
-130 122 -74 92 43 94 43 203 43 101 0 115 -2 168 -29 80 -39 129 -103 163
-212 22 -74 28 -85 46 -82 61 9 85 177 38 273 -35 71 -114 147 -201 190 -70
36 -80 38 -205 45 -72 4 -140 13 -152 19 -11 6 -29 25 -39 42 -19 31 -90 79
-118 79 -9 0 -27 -11 -40 -25z"/>
<path d="M4129 4045 c-100 -37 -179 -125 -216 -241 -14 -47 -15 -66 -5 -139
17 -132 66 -215 161 -276 57 -37 103 -38 136 -4 37 36 31 64 -27 136 -60 75
-78 114 -78 167 0 75 29 132 102 204 68 68 76 84 58 117 -7 14 -81 54 -93 50
-1 0 -18 -6 -38 -14z"/>
<path d="M2678 1413 c-22 -6 -34 -115 -22 -192 l9 -56 123 -3 122 -3 0 131 0
130 -107 -1 c-60 -1 -116 -3 -125 -6z"/>
<path d="M3063 1413 c-22 -4 -23 -8 -23 -129 l0 -124 124 0 123 0 6 68 c4 37
7 95 7 130 l0 62 -107 -1 c-60 -1 -118 -4 -130 -6z"/>
<path d="M2666 1024 c-13 -12 -16 -39 -16 -125 l0 -109 130 0 130 0 0 125 0
125 -114 0 c-91 0 -118 -3 -130 -16z"/>
<path d="M3040 916 l0 -123 68 -6 c37 -4 95 -7 130 -7 l62 0 0 63 c0 34 -3 92
-7 130 l-6 67 -123 0 -124 0 0 -124z"/>
</g>
</svg>
